<svg xmlns="http://www.w3.org/2000/svg" viewBox="0 0 180.08 169.88"><defs><style>.be1abcd2-c53d-408a-adf0-9c7582713a83{fill:#2b2b2b;}.b2f0eb45-683c-4626-a3dd-3dcfca9eba70{fill:#1f1f1f;}.a553cf45-d98d-4bd9-b741-8174259cdf20{fill:#1a1a1a;}.a2707ed8-6194-4c53-9f4e-166138d3fed4{fill:#0f0f0f;}.a9ac8631-253d-4bae-b304-624f46d8002b{fill:#febb33;}.a620a94f-52da-47a9-b449-f1ac5cfa0838{fill:#fedd33;}.a26f15e3-6735-4478-9ed3-297f5d862d4c{fill:#212121;}.b3a64c90-707d-4232-8672-1285c4657c80{fill:#292929;}.b88b859e-a8f6-4c51-85be-a1bf87c2fbe9{fill:#1c1c1c;}.af54e6da-3602-4c12-be2d-4cbaf4075594{fill:#121212;}.fc532050-0f87-436e-bc2b-442315476a40{fill:#141414;}.ae534f7c-7a2e-48db-a429-9d82f130eaa1{fill:#86755e;}.ac485a25-846a-4d8c-bebd-fb4431b1c2cd{fill:#fec22c;}.af15cc85-b39a-43dd-9685-d6485c9a0c6d{fill:#978059;}.e98a7294-b106-43c9-8488-d7da196b261d{fill:#fee532;}.f2c72b5d-caca-4982-8e4d-521065de6c5f{fill:#8b8767;}.b2b5cfd1-d8cd-4916-b5f4-111a36102955{fill:#fee42c;}.b0851b22-23d2-40ff-a241-0319ed9eac2a{fill:#a79d5b;}.e8dc640a-f92d-4202-9340-99d1099a707c{fill:#171717;}</style></defs><g id="ae26b3c8-508b-4eb5-97c0-88fb9e2942d9" data-name="Capa 2"><g id="f7cf6d54-1270-40af-87fe-01966aaaf267" data-name="Capa 2"><path class="be1abcd2-c53d-408a-adf0-9c7582713a83" d="M0,138.41c13.31-28.35,29.57-55.12,44.15-82.78,7.07-13.41,14.42-26.67,21.7-40C70.09,7.9,76,2.2,85.19,1c1.48,1.33,3.68-.53,5.09,1.15a22.76,22.76,0,0,1,2.4,8.62A4.39,4.39,0,0,1,90.28,12c-6.44.49-10.75,3.88-13.85,9.47C64.74,42.56,53.29,63.76,41.82,85c-8.19,15.14-16.57,30.17-24.69,45.35-7.69,14.38-6.94,18.79,6.32,28.29,2.61,1.55,5.49,1.19,8.29,1.2,16.74,0,33.49,0,50.24,0,2.78,0,5.7-.46,8.15,1.48a5,5,0,0,1-.06,6.52c-2.68,2-5.81,1.41-8.8,1.44-19.63.21-39.26-.29-58.88.29-10.07.29-20.28-8.16-21.73-18-.17-1.16.28-2.44-.66-3.45Z"/><path class="b2f0eb45-683c-4626-a3dd-3dcfca9eba70" d="M90,167.6v-6.08l.8-.76c2.46-1.29,5.15-.91,7.76-.92,17,0,34.06,0,51.09-.05,2.39,0,4.89.51,7.09-.93a27,27,0,0,1,2.26-2c9.86-7.37,11.19-13.77,5.32-24.46-19.75-35.94-39.62-71.82-58.73-108.12-3.17-6-8.34-9.59-13.15-13.77C89.1,8.47,90.2,5.13,90,2.16l.57-.59c1.73-1.17,3.76.84,5.48-.5,7.88,1.78,13.53,6.31,17.39,13.41Q133.15,50.71,153,86.84q12.11,22.18,24.14,44.42a71.16,71.16,0,0,1,3,7.15v9.73c-.56,8.76-5.57,14.7-12.51,19.27a12.54,12.54,0,0,1-9.74,2.16c-19.55-.59-39.09-.08-58.63-.27-2.79,0-5.66.41-8.33-.91Z"/><path class="a553cf45-d98d-4bd9-b741-8174259cdf20" d="M90,2.16C88.37,2,86.48,2.73,85.19,1,88.1.07,91-.59,94,.8c-1,1.39-2.88.11-3.91,1.34Z"/><path class="a2707ed8-6194-4c53-9f4e-166138d3fed4" d="M90.06,2.14C91,.69,92.61,1.08,94,.8l2.12.27C94.34,2.9,92.09,1.89,90.06,2.14Z"/><path class="a9ac8631-253d-4bae-b304-624f46d8002b" d="M92.48,10.5c6.19,1.4,10.09,5.34,13,10.82Q135.67,77,166,132.61c6.49,11.92,4.05,20-8,26.4a5.8,5.8,0,0,1-3.21,1.22c-21.23,0-42.46.32-63.68-.16-4.17-2.69-2.36-7.5-3.92-11.12.1-1.1.9-1.54,1.79-1.88,4.43-.14,7.49-2.52,9.8-6.09.31-.41.64-.81,1-1.2a2.93,2.93,0,0,0,0-4c-.35-.39-.67-.79-1-1.2-2-3.8-6.13-4.91-9.23-7.33-1.57-3.06-.66-6.7-2.27-9.76a1.73,1.73,0,0,1,.58-1.51c1.48-.94,3.22-.83,4.84-1.19,3.23-1.25,4.72-4.25,6.76-6.72a6.77,6.77,0,0,0,.81-1.64c.39-17.62.35-35.22,0-52.81A5.53,5.53,0,0,0,99.46,52c-.35-.47-.67-1-1-1.46-2.32-3.37-5.3-5.72-9.58-6-1-.4-1.72-.95-1.66-2.13,1.7-7.58.72-15.27,1-22.91.11-3-.5-6.11,1.8-8.64Z"/><path class="a620a94f-52da-47a9-b449-f1ac5cfa0838" d="M90,10.86c0,8.69-.05,17.39,0,26.08,0,2.5,0,4.86-2.43,6.34-1.48,3.52-5.55,4.9-7,8.47a8.32,8.32,0,0,0-.84,1.69q-.61,26.6,0,53.15a7.12,7.12,0,0,0,.84,1.62c1.51,3.52,5.14,5.33,7,8.58,4.06,2.77,1.8,6.94,2.31,10.5-.15.23-.29.46-.43.69-3.16,1.56-5.51,4.1-7.84,6.64l-.57.52c-.35.35-.72.7-1.06,1.06a2.72,2.72,0,0,0,0,3.29c.33.39.63.79.94,1.19s.63.82.93,1.24c1.44,2.58,4.48,3.76,5.71,6.52,4.16,2.72,1.78,6.94,2.39,10.47-1.56,1.81-3.71,1.36-5.67,1.37q-27.91.06-55.82,0c-2.22,0-4.47,0-6.42-1.32-12.17-6.41-14.47-14.4-7.77-26.69Q44.83,76.38,75.24,20.45C78.48,14.49,82.82,10.54,90,10.86Z"/><path class="a26f15e3-6735-4478-9ed3-297f5d862d4c" d="M157.37,169c-2.5,1.19-5.17.78-7.78.78q-59.62,0-119.24-.09c-3.25,0-6.5,0-9.62-1.05,1.87-1.8,4.22-1,6.35-1q31.47-.09,63,0h0c2.29,1.22,4.75.58,7.12.59,18.13.06,36.26,0,54.38.07C153.49,168.27,155.6,167.56,157.37,169Z"/><path class="b3a64c90-707d-4232-8672-1285c4657c80" d="M22.12,159,90,158.91l65.65.39c-1.17,3.08-3.81,1.49-5.66,1.51-18,.15-36,.07-54,.11-2,0-4-.55-5.93.6h0c-19.82,0-39.63,0-59.44,0A19.24,19.24,0,0,1,21.85,160c-.1,0-.14-.37-.09-.53S22,159.13,22.12,159Z"/><path class="b88b859e-a8f6-4c51-85be-a1bf87c2fbe9" d="M90.05,161.52c1.79-2,4.18-1.17,6.3-1.18,17.64-.06,35.28,0,52.92-.07,2.15,0,4.49.75,6.41-1l2.37-.29c-1.19,3.56-4.25,2.46-6.64,2.47C131,161.56,110.5,161.52,90.05,161.52Z"/><path class="af54e6da-3602-4c12-be2d-4cbaf4075594" d="M157.37,169q-30.52-.12-61-.27c-2.11,0-4.48.8-6.28-1.15,21,0,42,0,63,0,2.13,0,4.48-.78,6.33,1.07Z"/><path class="be1abcd2-c53d-408a-adf0-9c7582713a83" d="M80.12,50.78c1-4.05,4-6,7.52-7.5l2.42.26a8,8,0,0,1,1.84,5.62c.1,20.58.22,41.15-.06,61.73a9.42,9.42,0,0,1-.57,3c-.52,1.84-2.24,1.93-3.65,2.49l.06.45c-3.63-1.4-6.59-3.47-7.54-7.54,0-.37-.11-.73-.17-1.1Q79.61,80,80,51.87C80,51.51,80.06,51.14,80.12,50.78Z"/><path class="b2f0eb45-683c-4626-a3dd-3dcfca9eba70" d="M90,115.29q0-35.88,0-71.75c5.07-.9,7.14,2.81,9.45,6.16,1.55,12.47.43,25,.74,37.5.16,6.67-.17,13.34.21,20a4.53,4.53,0,0,1-.51,2.17c-1.71,2.66-2.79,5.9-6.39,6.78C92.48,115.53,91,116.39,90,115.29Z"/><path class="a26f15e3-6735-4478-9ed3-297f5d862d4c" d="M99.88,141c-1.55,4.76-4.44,7.66-9.82,7.12a23.94,23.94,0,0,1,.07-20.36l-.14-.42c4.63.66,8.31,2.6,9.91,7.35A5.39,5.39,0,0,1,99.88,141Z"/><path class="be1abcd2-c53d-408a-adf0-9c7582713a83" d="M90.13,127.71q0,10.19-.07,20.36l-2.42.37c-3.14-1.31-6-2.89-7-6.49.26-2.37-1.08-4.71-.16-7.1C82.71,131.18,84.85,127.31,90.13,127.71Z"/><path class="fc532050-0f87-436e-bc2b-442315476a40" d="M99.59,108a345.68,345.68,0,0,1-.08-58.27,1.51,1.51,0,0,1,.44.94,8.06,8.06,0,0,1,1,4.64q0,23.82,0,47.66C101,104.71,101.24,106.61,99.59,108Z"/><path class="ae534f7c-7a2e-48db-a429-9d82f130eaa1" d="M99.59,108,100,50.64a3.44,3.44,0,0,0,.9.19c1.35,1.82.69,3.91.7,5.87q.09,23.31,0,46.63c0,2,.65,4-.7,5.86a3.91,3.91,0,0,0-.9.2Z"/><path class="ac485a25-846a-4d8c-bebd-fb4431b1c2cd" d="M100.85,109.19V50.83c1.67,1.08,1.35,2.8,1.35,4.37q0,24.81,0,49.63C102.2,106.4,102.52,108.12,100.85,109.19Z"/><path d="M90,115.29c1.24.06,2.56-.25,3.52.88a10.9,10.9,0,0,1-5.94.17Z"/><path class="af15cc85-b39a-43dd-9685-d6485c9a0c6d" d="M99.88,141c0-2.1,0-4.21,0-6.31a4.74,4.74,0,0,0,.93.14,6,6,0,0,1,.11,6.06C100.59,140.89,100.23,140.93,99.88,141Z"/><path class="ac485a25-846a-4d8c-bebd-fb4431b1c2cd" d="M100.94,140.84c0-2-.07-4-.11-6.06C102.89,136.76,102.77,138.78,100.94,140.84Z"/><path class="e98a7294-b106-43c9-8488-d7da196b261d" d="M79.33,109.12c-1.79-1-1.44-2.72-1.44-4.29q0-24.81,0-49.62c0-1.57-.35-3.3,1.4-4.32,1,1.4,1,3,1,4.64q0,24.47,0,48.94C80.29,106.08,80.32,107.71,79.33,109.12Z"/><path class="f2c72b5d-caca-4982-8e4d-521065de6c5f" d="M79.33,109.12q0-29.12,0-58.23a4.6,4.6,0,0,0,.83-.11l.49.13q.72,29.1,0,58.21l-.48.13A3.61,3.61,0,0,0,79.33,109.12Z"/><path class="af54e6da-3602-4c12-be2d-4cbaf4075594" d="M80.43,134.85c1.75,2.33,1.57,4.7.16,7.1a1.62,1.62,0,0,1-.51-1,5.54,5.54,0,0,1,.14-6.3Z"/><path class="b2b5cfd1-d8cd-4916-b5f4-111a36102955" d="M79.13,140.83c-1.79-2-2-4.05.13-6A8.31,8.31,0,0,1,79.13,140.83Z"/><path class="b0851b22-23d2-40ff-a241-0319ed9eac2a" d="M79.13,140.83c0-2,.08-4,.13-6a4.36,4.36,0,0,0,1-.13q-.06,3.15-.14,6.3A7.53,7.53,0,0,0,79.13,140.83Z"/><path class="e8dc640a-f92d-4202-9340-99d1099a707c" d="M80.62,109.12q-.8-29.12,0-58.21c1.38,1.55.89,3.44.9,5.21q0,23.9,0,47.78C81.5,105.67,82,107.56,80.62,109.12Z"/></g></g></svg>